 <svg  version="1.0" xmlns="http://www.w3.org/2000/svg"  width="300.000000pt" height="163.000000pt" viewBox="0 0 300.000000 163.000000"  preserveAspectRatio="xMidYMid meet">  <g transform="translate(0.000000,163.000000) scale(0.100000,-0.100000)" fill="#0270af" stroke="none"> <path d="M507 814 l2 -245 240 1 c273 1 322 9 378 65 36 36 42 68 17 103 -17 24 -72 55 -119 67 -30 7 -30 7 22 27 95 35 122 108 62 166 -57 55 -96 62 -363 62 l-241 0 2 -246z m527 190 c22 -11 48 -32 59 -46 25 -34 13 -55 -53 -98 -27 -18 -50 -34 -50 -37 0 -12 22 -43 30 -43 23 0 100 -63 100 -81 0 -26 -44 -66 -89 -80 -53 -17 -457 -24 -476 -9 -20 17 -22 389 -2 409 9 9 64 11 227 9 194 -3 219 -5 254 -24z"/> <path d="M756 948 c-20 -29 -22 -240 -3 -278 11 -23 19 -25 86 -28 86 -3 115 10 137 65 14 34 14 37 -11 72 -24 36 -25 39 -10 67 22 42 19 60 -16 94 -29 27 -38 30 -100 30 -59 0 -70 -3 -83 -22z m164 -28 c44 -44 8 -90 -70 -90 -43 0 -50 -3 -50 -19 0 -16 6 -18 38 -14 46 6 86 -9 107 -40 32 -50 -17 -87 -115 -87 l-60 0 0 135 0 135 65 0 c52 0 69 -4 85 -20z"/> <path d="M1220 813 l0 -248 237 6 c277 6 336 19 416 89 55 49 71 91 65 176 -7 109 -70 174 -203 209 -45 11 -114 15 -287 15 l-228 0 0 -247z m481 204 c88 -17 138 -45 174 -96 25 -36 30 -52 30 -105 0 -99 -48 -149 -185 -196 -45 -15 -445 -27 -453 -13 -9 14 -12 397 -3 411 10 17 349 16 437 -1z"/> <path d="M1479 931 c-22 -18 -24 -26 -24 -121 0 -95 2 -103 24 -121 46 -38 150 -19 201 36 21 22 25 37 25 83 0 65 -21 102 -72 127 -45 22 -125 20 -154 -4z m159 -38 c36 -27 48 -63 36 -109 -12 -49 -46 -72 -121 -80 l-63 -7 0 113 0 112 60 -4 c40 -3 70 -11 88 -25z"/> <path d="M1995 816 l0 -245 133 -3 132 -3 0 85 0 85 105 -3 105 -3 0 60 0 61 -105 0 -105 0 0 36 0 35 120 -3 120 -3 0 73 0 72 -252 0 -253 0 0 -244z m465 194 c8 -14 8 -26 0 -40 -9 -18 -21 -20 -97 -20 -75 0 -90 -3 -110 -22 -29 -27 -29 -65 -1 -95 19 -20 31 -23 98 -23 81 0 92 -3 83 -26 -4 -10 -25 -14 -78 -14 -100 0 -125 -19 -125 -95 0 -43 -4 -56 -19 -65 -27 -14 -154 -13 -169 2 -17 17 -17 389 0 406 9 9 69 12 210 12 187 0 198 -1 208 -20z"/> </g> </svg> 