 <svg  version="1.0" xmlns="http://www.w3.org/2000/svg"  width="300.000000pt" height="124.000000pt" viewBox="0 0 300.000000 124.000000"  preserveAspectRatio="xMidYMid meet">  <g transform="translate(0.000000,124.000000) scale(0.100000,-0.100000)" fill="#9c986d" stroke="none"> <path d="M1470 1162 c-74 -40 -340 -197 -365 -217 -34 -26 88 30 222 103 185 100 200 104 331 100 l110 -3 204 -102 c112 -57 219 -105 238 -108 31 -5 28 -2 -25 26 -33 17 -139 75 -235 128 l-175 96 -125 3 c-122 3 -126 2 -180 -26z"/> <path d="M1474 1078 c-17 -19 -143 -115 -190 -145 -10 -6 -14 -12 -7 -12 6 -1 51 26 100 58 96 64 157 121 131 121 -8 0 -23 -10 -34 -22z"/> <path d="M1568 1062 c-10 -20 -41 -66 -70 -102 -35 -44 -44 -60 -28 -49 29 18 130 155 130 175 0 25 -15 14 -32 -24z"/> <path d="M1760 1093 c0 -19 314 -212 326 -200 3 2 -17 17 -43 32 -26 16 -94 59 -151 97 -109 73 -132 86 -132 71z"/> <path d="M1680 1060 c0 -13 140 -160 153 -160 5 0 -23 34 -62 75 -39 41 -71 80 -71 85 0 6 -4 10 -10 10 -5 0 -10 -4 -10 -10z"/> <path d="M385 906 c-38 -17 -80 -62 -95 -100 -21 -56 17 -120 77 -132 34 -7 55 11 24 21 -23 7 -31 33 -20 62 10 27 75 61 132 69 36 5 173 -14 225 -31 8 -3 -6 -32 -42 -86 -30 -44 -67 -112 -82 -149 -26 -66 -28 -69 -71 -79 -25 -7 -55 -23 -69 -38 -42 -45 -28 -54 45 -28 22 8 41 10 41 5 0 -24 -101 -220 -131 -254 -55 -64 -138 -91 -202 -67 -55 21 -99 114 -83 175 17 68 94 113 142 81 13 -8 29 -13 34 -10 18 11 11 64 -11 86 -18 18 -30 20 -70 17 -163 -16 -225 -222 -101 -340 53 -51 78 -61 152 -60 157 1 257 88 344 301 18 45 36 84 39 87 3 3 29 12 58 20 30 9 62 18 73 21 16 5 17 3 6 -17 -7 -13 -13 -45 -13 -71 -2 -96 84 -133 158 -68 19 17 35 26 35 20 0 -24 40 -51 78 -51 51 0 97 31 123 82 12 24 43 63 68 88 25 25 53 59 63 77 12 24 21 30 37 26 12 -3 21 -8 21 -10 0 -3 -16 -32 -36 -64 -50 -80 -57 -147 -21 -183 15 -14 33 -26 42 -26 21 0 75 54 75 74 0 18 -15 21 -25 6 -11 -17 -43 -11 -50 10 -8 25 29 140 56 174 10 13 19 34 19 46 0 20 -4 21 -39 15 -39 -6 -40 -6 -43 27 -2 28 -7 33 -28 33 -23 0 -25 -4 -25 -47 0 -37 -6 -56 -28 -84 -33 -40 -43 -38 -39 10 4 41 -19 66 -59 66 -86 0 -199 -129 -199 -227 0 -15 -13 -32 -41 -50 l-41 -27 -20 24 c-23 29 -20 58 16 136 17 37 34 58 58 70 117 60 246 183 272 260 27 80 17 114 -32 114 -61 0 -270 -208 -332 -330 -17 -34 -26 -39 -86 -54 -36 -9 -69 -15 -71 -12 -8 7 43 131 83 204 l35 62 61 0 c57 0 63 2 99 39 59 59 47 101 -31 101 -36 0 -117 -39 -144 -69 -26 -29 -42 -27 -148 20 -106 47 -208 61 -263 35z m80 -46 c-22 -10 -45 -19 -51 -19 -5 -1 -25 -15 -42 -32 -36 -35 -51 -32 -34 6 17 38 69 65 122 64 l45 0 -40 -19z m505 0 c0 -16 -42 -38 -87 -45 -54 -9 -57 7 -5 34 39 21 92 28 92 11z m195 -62 c-14 -47 -58 -100 -131 -158 -41 -33 -79 -60 -84 -60 -5 0 5 23 23 51 73 118 213 240 192 167z m-267 -246 c-13 -15 -32 -40 -42 -56 -14 -21 -21 -25 -29 -16 -9 9 -6 17 14 33 14 12 36 37 49 56 14 20 26 29 28 22 2 -7 -7 -25 -20 -39z m-236 12 c-6 -11 -6 -29 -1 -48 8 -26 6 -34 -11 -47 -11 -9 -38 -56 -60 -104 -42 -92 -69 -113 -31 -25 14 32 19 59 15 76 -5 19 0 32 19 52 14 15 35 49 47 75 13 26 25 46 27 43 3 -2 0 -12 -5 -22z m526 14 c18 -18 14 -46 -7 -58 -25 -13 -35 -44 -22 -69 9 -16 5 -26 -23 -55 -51 -55 -96 -47 -96 17 1 37 38 108 77 143 40 37 52 41 71 22z"/> <path d="M2248 901 c-130 -51 -301 -206 -358 -326 -37 -76 -55 -174 -46 -236 10 -69 58 -144 113 -176 69 -41 154 -38 342 10 180 46 213 47 251 7 15 -16 33 -30 39 -30 14 0 31 34 31 64 0 59 -89 59 -316 2 -79 -20 -165 -36 -197 -36 -48 0 -61 4 -90 30 -86 75 -72 247 34 427 69 116 241 260 302 251 30 -4 35 -36 5 -40 -32 -4 -38 -52 -9 -68 16 -8 28 -7 51 5 42 22 45 72 8 112 -27 29 -92 30 -160 4z m-236 -258 c-77 -130 -108 -272 -79 -365 18 -58 7 -62 -25 -10 -19 31 -23 50 -23 123 0 78 3 91 37 160 35 70 115 175 125 165 3 -2 -13 -35 -35 -73z"/> <path d="M2452 708 c-22 -22 -13 -25 75 -31 85 -5 127 3 136 27 6 16 -196 19 -211 4z"/> <path d="M1651 615 c-24 -59 -38 -82 -45 -75 -40 40 -146 -50 -146 -125 0 -16 34 -55 49 -55 5 0 23 12 40 26 24 20 31 22 31 10 0 -8 10 -20 21 -27 17 -9 26 -7 48 8 25 18 27 18 44 1 24 -25 69 -23 95 5 28 30 30 58 3 33 -21 -19 -62 -18 -68 0 -2 6 12 21 31 32 69 41 84 102 24 102 -40 0 -94 -54 -103 -104 -8 -39 -31 -58 -45 -36 -9 14 10 72 64 200 20 46 36 86 36 87 0 2 -10 3 -22 3 -19 0 -28 -14 -57 -85z m139 -94 c0 -18 -52 -71 -70 -71 -14 0 1 38 26 65 28 30 44 32 44 6z m-185 -1 c3 -5 -6 -32 -20 -60 -21 -41 -30 -51 -48 -48 -31 4 -26 53 9 90 29 29 48 35 59 18z"/> <path d="M2170 593 c-85 -56 -135 -140 -127 -212 5 -45 33 -81 63 -81 8 0 31 16 53 35 l39 35 6 -25 c9 -36 50 -43 88 -15 30 22 30 22 23 1 -6 -19 -2 -21 30 -21 27 0 38 5 42 18 2 9 23 62 47 117 32 77 48 103 69 113 42 20 49 7 25 -51 -11 -29 -27 -74 -35 -100 -13 -43 -13 -50 1 -72 22 -34 58 -32 99 5 l34 29 11 -25 c22 -47 74 -50 115 -8 27 29 37 30 37 4 0 -26 37 -41 70 -28 31 12 80 57 80 75 0 21 -12 15 -40 -19 -19 -22 -32 -30 -44 -25 -23 9 -18 29 35 150 22 51 43 98 46 105 3 8 -6 12 -30 12 -19 0 -37 -6 -40 -12 -4 -10 -7 -10 -18 0 -30 28 -109 -1 -161 -61 -27 -32 -58 -93 -58 -115 0 -25 -35 -56 -55 -48 -18 7 -14 31 22 120 28 69 24 103 -12 112 -25 6 -42 4 -79 -12 -14 -5 -17 -4 -12 5 6 9 -2 12 -30 9 -38 -3 -38 -3 -78 -100 -44 -106 -74 -145 -101 -134 -24 9 -15 46 34 152 l40 84 -33 0 c-17 0 -37 -5 -44 -12 -9 -9 -15 -9 -24 0 -17 17 -59 15 -88 -5z m83 -38 c-3 -42 -52 -151 -75 -168 -27 -20 -54 -15 -63 12 -9 30 23 112 57 148 38 39 84 44 81 8z m580 11 c3 -8 -7 -50 -22 -93 -20 -56 -34 -81 -51 -90 -52 -26 -77 27 -46 100 29 70 104 122 119 83z"/> <path d="M2658 239 c-22 -12 -23 -52 -3 -69 19 -15 61 -6 69 16 7 19 -19 64 -37 64 -6 0 -20 -5 -29 -11z m51 -38 c-1 -13 -2 -13 -6 2 -2 9 -8 15 -12 13 -4 -3 -8 1 -8 9 0 11 4 12 14 4 7 -6 12 -19 12 -28z"/> </g> </svg> 