 <svg  version="1.0" xmlns="http://www.w3.org/2000/svg"  width="300.000000pt" height="300.000000pt" viewBox="0 0 300.000000 300.000000"  preserveAspectRatio="xMidYMid meet">  <g transform="translate(0.000000,300.000000) scale(0.100000,-0.100000)" fill="#483e8e" stroke="none"> <path d="M1182 2063 l-101 -108 -1 92 c0 50 -4 94 -9 97 -13 8 -223 -29 -367 -64 -113 -28 -390 -118 -476 -154 l-38 -16 0 -231 c0 -181 3 -230 13 -226 6 3 56 26 110 50 54 25 107 47 117 50 18 5 20 14 20 86 0 78 1 82 26 91 14 6 27 10 30 10 2 0 4 -128 4 -284 l0 -284 -55 -22 -54 -22 -3 -154 c-2 -85 -2 -154 0 -154 1 0 38 18 82 40 101 51 224 101 328 135 l82 26 0 140 c0 76 -4 139 -8 139 -5 0 -31 -7 -58 -15 -27 -8 -50 -15 -51 -15 -2 0 -3 123 -3 274 l0 274 23 6 c12 3 25 6 30 6 4 0 7 -34 7 -75 0 -73 1 -75 23 -70 12 3 64 13 115 23 l92 18 0 -210 0 -211 103 -103 104 -103 192 -2 192 -1 109 109 110 110 0 106 0 106 -107 11 c-170 19 -159 22 -155 -44 4 -52 2 -58 -29 -90 -32 -33 -34 -34 -119 -34 -81 0 -88 2 -113 28 l-27 28 0 197 0 197 36 40 c35 39 38 40 103 40 65 0 68 -1 109 -43 37 -38 42 -48 42 -89 l0 -46 78 -7 c42 -4 101 -10 130 -14 l52 -8 0 90 c0 77 2 88 16 83 9 -3 22 -6 30 -6 12 0 14 -48 15 -297 l1 -298 81 -134 82 -134 70 -24 c39 -12 114 -41 168 -64 l97 -42 23 20 c12 11 75 66 140 122 l117 103 2 212 c1 116 2 228 2 249 -1 42 8 45 51 17 17 -11 33 -20 38 -20 4 0 6 69 5 152 l-3 153 -80 34 c-119 51 -340 130 -342 123 -1 -4 -3 -69 -6 -144 l-4 -138 38 -12 39 -11 0 -248 0 -248 -31 -24 -30 -24 -63 25 c-55 22 -67 31 -94 77 l-32 53 0 232 0 232 25 -6 c14 -3 35 -8 48 -11 l22 -6 -3 138 c-2 76 -6 141 -10 144 -8 7 -171 42 -297 64 -49 9 -100 18 -112 21 -23 4 -23 3 -23 -93 l0 -98 -108 108 -107 107 -176 0 -176 0 -101 -107z m560 -20 l108 -108 0 -108 0 -109 -67 6 c-160 16 -153 13 -153 59 0 36 -6 48 -47 89 l-47 48 -71 0 c-70 0 -71 0 -112 -42 l-42 -43 -7 -203 -7 -203 39 -40 38 -39 85 0 c85 0 85 0 123 37 35 34 38 42 38 91 l0 55 78 -7 c42 -4 94 -10 115 -13 l37 -6 0 -91 0 -91 -104 -104 -104 -104 -182 0 -182 0 -99 99 -99 99 0 310 0 310 107 107 108 108 170 0 170 0 107 -107z m-682 -106 l0 -194 -97 -16 c-54 -10 -101 -17 -105 -17 -5 0 -8 32 -8 70 0 77 0 77 -62 59 l-38 -10 0 -289 c0 -160 3 -290 8 -290 4 0 31 7 60 14 l52 14 0 -123 0 -123 -32 -7 c-50 -11 -242 -87 -335 -133 l-83 -40 0 132 0 132 55 23 55 23 0 300 0 300 -25 -6 c-75 -19 -75 -19 -75 -103 l0 -78 -108 -47 c-59 -27 -110 -48 -113 -48 -3 0 -4 93 -3 208 l3 207 67 27 c90 37 288 102 404 133 83 21 332 72 368 74 9 1 12 -44 12 -192z m1034 148 c93 -19 173 -40 178 -47 10 -16 2 -234 -9 -231 -4 1 -25 4 -45 8 l-37 7 -1 -242 -1 -242 38 -64 c20 -35 42 -64 48 -64 5 0 36 -11 69 -25 l59 -24 38 32 39 32 0 256 0 256 -41 16 -41 16 3 121 c2 66 7 120 11 120 13 0 269 -97 331 -125 l57 -26 0 -130 0 -129 -40 20 c-21 11 -41 20 -43 20 -3 0 -8 -117 -12 -261 l-7 -260 -120 -107 c-66 -59 -126 -110 -133 -114 -7 -5 -38 4 -70 18 -31 14 -102 43 -158 63 l-102 36 -77 130 -78 130 0 297 0 298 -27 6 c-16 3 -34 7 -40 10 -10 2 -13 35 -13 119 l0 115 28 0 c15 0 103 -16 196 -35z"/> <path d="M1203 2021 l-103 -109 0 -288 0 -289 91 -97 91 -98 177 0 176 0 93 93 92 92 0 82 0 81 -67 7 c-38 4 -76 9 -85 11 -15 5 -18 -2 -18 -43 0 -44 -4 -53 -44 -92 l-44 -44 -104 2 -103 2 -37 37 -38 36 0 221 0 221 54 53 54 53 81 -3 80 -4 51 -50 c44 -43 50 -54 50 -91 l0 -41 73 -7 c39 -4 80 -9 90 -12 15 -5 17 4 17 83 l0 88 -108 108 -107 107 -155 -1 -155 0 -102 -108z m387 67 c42 -13 176 -145 194 -191 25 -62 4 -123 -38 -112 -44 13 -64 28 -70 54 -6 28 -55 85 -104 119 -25 18 -44 22 -116 22 l-85 0 -47 -47 c-76 -78 -73 -65 -74 -307 l-1 -218 26 -38 c45 -64 60 -70 189 -70 l114 0 51 56 c28 30 51 63 51 72 0 24 31 41 63 35 34 -7 38 -14 42 -70 2 -46 1 -48 -79 -130 l-81 -83 -165 -1 -165 -1 -77 82 c-43 44 -78 86 -78 93 -4 183 -1 549 4 554 4 5 38 41 74 82 96 105 105 110 231 110 58 1 122 -4 141 -11z"/> <path d="M856 2070 c-172 -36 -376 -95 -518 -150 l-108 -41 0 -184 0 -183 90 41 89 41 3 80 3 79 68 23 67 23 0 -328 0 -329 -55 -22 -55 -22 0 -103 0 -103 108 49 c60 26 152 63 205 81 l97 33 0 98 c0 53 -2 97 -3 97 -2 0 -29 -9 -60 -19 l-57 -20 0 319 0 318 33 11 c17 5 49 13 70 17 l37 6 0 -71 c0 -81 -6 -77 100 -59 l70 12 0 168 c0 198 23 180 -184 138z m139 -144 l0 -130 -34 -8 c-18 -5 -35 -7 -38 -4 -3 2 -9 24 -14 48 -18 76 -48 91 -130 66 -21 -6 -48 -20 -59 -30 -19 -18 -20 -30 -20 -331 1 -347 1 -351 62 -346 46 4 56 -5 55 -48 -1 -45 -31 -83 -64 -83 -13 0 -23 -5 -23 -12 0 -6 -3 -9 -6 -6 -7 8 -104 -27 -175 -63 -32 -16 -61 -29 -64 -29 -3 0 -5 29 -5 64 0 61 1 64 29 76 16 6 39 23 52 36 l23 25 -1 315 c-1 286 -2 317 -18 334 -19 21 -79 28 -90 10 -3 -5 -14 -10 -24 -10 -9 0 -29 -13 -44 -28 -22 -23 -27 -37 -27 -81 0 -55 -11 -74 -58 -98 -56 -30 -62 -18 -62 126 0 127 8 142 83 166 28 9 60 20 69 26 10 5 25 9 33 9 8 0 15 4 15 9 0 5 12 11 28 14 15 3 43 10 62 16 98 29 318 81 342 81 15 0 30 5 33 11 4 5 21 9 38 7 l32 -3 0 -129z"/> <path d="M1892 2003 c3 -89 5 -98 23 -101 11 -1 31 -5 44 -8 l24 -5 -6 -300 -7 -300 76 -128 76 -128 56 -18 c31 -9 99 -35 149 -57 108 -46 78 -57 241 87 l102 90 0 272 c0 150 2 273 5 273 3 0 23 -9 45 -20 22 -11 42 -20 45 -20 3 0 4 46 3 102 l-3 102 -78 34 c-44 18 -121 49 -173 68 l-94 34 0 -99 0 -98 36 -14 35 -14 0 -270 -1 -270 -46 -41 -46 -42 -81 33 c-77 31 -84 36 -119 92 l-37 58 0 268 c-1 290 -4 275 57 258 l32 -10 0 98 0 98 -97 22 c-54 12 -125 26 -158 31 -33 6 -70 13 -83 16 -23 5 -23 4 -20 -93z m232 17 c43 -10 83 -24 87 -32 5 -7 8 -33 7 -58 -3 -40 -6 -45 -29 -48 -15 -2 -35 -12 -45 -24 -17 -18 -19 -42 -21 -262 -1 -245 1 -266 39 -341 39 -74 82 -106 193 -139 51 -16 79 -4 131 53 31 33 34 42 35 101 0 36 2 148 4 250 1 102 0 197 -2 213 -3 15 -19 41 -36 57 -24 24 -31 40 -33 76 -3 55 10 63 69 39 23 -9 44 -17 47 -17 14 -2 67 -23 113 -47 51 -25 52 -27 55 -75 3 -51 -6 -66 -42 -66 -11 0 -28 -7 -38 -17 -16 -15 -18 -36 -18 -260 0 -277 0 -278 -77 -340 -26 -21 -65 -54 -86 -73 -59 -54 -61 -54 -130 -22 -34 16 -84 37 -112 46 -78 26 -93 36 -123 85 -16 25 -44 71 -63 101 l-34 55 0 301 c0 326 1 320 -57 350 -26 13 -28 19 -28 70 l0 55 58 -6 c31 -4 92 -15 136 -25z"/> </g> </svg> 